# xmcd
#
# Track frame offsets: 
#        150
#        12437
#        22337
#        35700
#        49687
#        64650
#        77450
#        90212
#        101037
#        112962
#
# Disc length: 1680 seconds
#
# Revision: 0
# Processed by: cddbd v1.5.1PL0 Copyright (c) Steve Scherf et al.
# Submitted via: ExactAudioCopy v0.95b1
#
DISCID=75068e0a
DTITLE=Mickey Gilley - Mellow Country
DYEAR=1998
DGENRE=Country
TTITLE0=I'll Sail My Ship Alone
TTITLE1=I Love You So Much It Hurts
TTITLE2=Don't The Girls All Get Prettier At Closing Time
TTITLE3=Don't You Know Me
TTITLE4=Talk To Me
TTITLE5=Room Full Of Roses
TTITLE6=Swinging Doors
TTITLE7=Don't Be Angry
TTITLE8=Chains Of Love
TTITLE9=True Love Ways
EXTD=
EXTT0=
EXTT1=
EXTT2=
EXTT3=
EXTT4=
EXTT5=
EXTT6=
EXTT7=
EXTT8=
EXTT9=
PLAYORDER=
